<svg width="31" height="30" viewBox="0 0 31 30" fill="none" xmlns="http://www.w3.org/2000/svg">
  <path
    d="M28.1105 14.1274C28.2333 14.2501 28.4403 14.1584 28.4268 13.9853C28.1948 11.0128 26.9421 8.10501 24.6685 5.83147C22.395 3.55792 19.4872 2.30518 16.5147 2.07325C16.3416 2.05975 16.2499 2.26672 16.3726 2.38949L28.1105 14.1274Z"
    fill="black"></path>
  <path
    d="M28.4268 16.0147C28.4403 15.8416 28.2333 15.7499 28.1105 15.8726L16.3726 27.6105C16.2499 27.7333 16.3416 27.9403 16.5147 27.9268C19.4872 27.6948 22.395 26.4421 24.6685 24.1685C26.9421 21.895 28.1948 18.9872 28.4268 16.0147Z"
    fill="black"></path>
  <path
    d="M14.6274 27.6105C14.7501 27.7333 14.6584 27.9403 14.4853 27.9268C11.5128 27.6948 8.60501 26.4421 6.33146 24.1685C4.05791 21.895 2.80517 18.9872 2.57324 16.0147C2.55974 15.8416 2.76671 15.7499 2.88948 15.8726L14.6274 27.6105Z"
    fill="black"></path>
  <path
    d="M2.57324 13.9853C2.55974 14.1584 2.76671 14.2501 2.88948 14.1274L14.6274 2.38949C14.7501 2.26672 14.6584 2.05975 14.4853 2.07325C11.5128 2.30518 8.60501 3.55792 6.33146 5.83146C4.05791 8.10501 2.80517 11.0128 2.57324 13.9853Z"
    fill="black"></path>
  <path
    d="M29.3103 10.4733C29.449 10.612 29.6737 10.4783 29.6118 10.2922C28.9052 8.16887 27.7069 6.17323 26.0169 4.48315C24.3268 2.79307 22.3311 1.59476 20.2078 0.888225C20.0217 0.826299 19.888 1.05097 20.0267 1.18966L29.3103 10.4733Z"
    fill="black"></path>
  <path
    d="M29.6118 19.7078C29.6737 19.5217 29.449 19.388 29.3103 19.5267L20.0267 28.8103C19.888 28.949 20.0217 29.1737 20.2078 29.1118C22.3311 28.4052 24.3268 27.2069 26.0169 25.5169C27.7069 23.8268 28.9052 21.8311 29.6118 19.7078Z"
    fill="black"></path>
  <path
    d="M10.9733 28.8103C11.112 28.949 10.9783 29.1737 10.7922 29.1118C8.66886 28.4053 6.67323 27.2069 4.98314 25.5169C3.29306 23.8268 2.09475 21.8311 1.38822 19.7078C1.32629 19.5217 1.55096 19.388 1.68965 19.5267L10.9733 28.8103Z"
    fill="black"></path>
  <path
    d="M1.38822 10.2922C1.32629 10.4783 1.55096 10.612 1.68965 10.4733L10.9733 1.18966C11.112 1.05096 10.9783 0.826299 10.7922 0.888224C8.66886 1.59476 6.67323 2.79306 4.98314 4.48315C3.29306 6.17323 2.09475 8.16887 1.38822 10.2922Z"
    fill="black"></path>
  <path
    d="M30.1426 23.2167C30.2295 23.0298 30.0032 22.8788 29.8575 23.0245L23.5246 29.3575C23.3788 29.5032 23.5298 29.7294 23.7167 29.6426C25.0999 29.0002 26.3795 28.1205 27.5 27C28.6206 25.8794 29.5002 24.5998 30.1426 23.2167Z"
    fill="black"></path>
  <path
    d="M7.28329 0.357357C7.4702 0.270544 7.62119 0.496787 7.47546 0.642514L1.14254 6.97544C0.996811 7.12117 0.770567 6.97018 0.857381 6.78327C1.4998 5.40013 2.37946 4.12054 3.50001 2.99999C4.62057 1.87943 5.90015 0.999776 7.28329 0.357357Z"
    fill="black"></path>
  <path
    d="M23.7167 0.35737C23.5298 0.270558 23.3788 0.4968 23.5245 0.642527L29.8575 6.97545C30.0032 7.12118 30.2294 6.97019 30.1426 6.78328C29.5002 5.40014 28.6206 4.12055 27.5 3C26.3794 1.87945 25.0999 0.99979 23.7167 0.35737Z"
    fill="black"></path>
  <path
    d="M0.857369 23.2167C0.770555 23.0298 0.996799 22.8788 1.14253 23.0245L7.47545 29.3575C7.62118 29.5032 7.47019 29.7294 7.28328 29.6426C5.90014 29.0002 4.62055 28.1206 3.5 27C2.37945 25.8794 1.49979 24.5999 0.857369 23.2167Z"
    fill="black"></path>
  <path
    d="M22.2416 8.25843C25.9648 11.9817 25.9648 18.0183 22.2416 21.7416C18.5183 25.4648 12.4817 25.4648 8.75842 21.7416C5.03516 18.0183 5.03516 11.9817 8.75843 8.25843C12.4817 4.53516 18.5183 4.53516 22.2416 8.25843Z"
    fill="black"></path>
</svg>